<?xml version="1.0" encoding="utf-8"?>
<!-- Generator: Adobe Illustrator 27.5.0, SVG Export Plug-In . SVG Version: 6.00 Build 0)  -->
<svg version="1.1" xmlns="http://www.w3.org/2000/svg" xmlns:xlink="http://www.w3.org/1999/xlink" x="0px" y="0px"
	 viewBox="0 0 1122 1122" style="enable-background:new 0 0 1122 1122;" xml:space="preserve">
<g id="BG">
	<g>
		<rect style="fill:#E5F5F9;" width="1122" height="1122"/>
		<circle style="opacity:0.37;fill:#FFFFFF;" cx="561" cy="561" r="454.546"/>
	</g>
</g>
<g id="Objects">
	<g>
		<g>
			<g>
				<path style="fill:#F4D242;" d="M760.389,507.271c0-109.295-88.601-197.896-197.895-197.896
					c-109.298,0-198.273,89.296-197.896,198.594c0.187,54.272,22.226,103.391,57.774,139.032
					c27.673,27.745,47.916,62.007,58.144,99.835l15.957,59.016h129.725l15.113-55.895c10.449-38.643,31.378-73.511,59.923-101.577
					C737.745,612.48,760.389,562.521,760.389,507.271z"/>
				<path style="fill:#59595B;" d="M592.458,874.971h-63.249c-17.919,0-33.251-13.234-34.273-30.024l-5.339-64.81l143.246-0.918
					l-6.114,65.728C625.709,861.737,610.377,874.971,592.458,874.971z"/>
			</g>
			<path style="fill:#808183;" d="M619.965,807.483c-40.014,1.711-80.172-0.339-120.182,1.429c-3.553,0.157-3.287,5.343,0.199,5.459
				c40.043,1.33,80.192-1.151,120.239,0.122C624.714,814.635,624.515,807.288,619.965,807.483z"/>
			<path style="fill:#808183;" d="M619.965,824.864c-40.014,1.711-80.172-0.339-120.182,1.429c-3.553,0.157-3.287,5.343,0.199,5.459
				c40.043,1.331,80.192-1.151,120.239,0.122C624.714,832.017,624.515,824.669,619.965,824.864z"/>
		</g>
		<g>
			<path style="fill:#F4D242;" d="M578.628,208.745c0,12.753-6.781,58.599-15.145,58.599c-8.364,0-15.145-45.846-15.145-58.599
				s6.781-23.091,15.145-23.091C571.847,185.654,578.628,195.992,578.628,208.745z"/>
			<path style="fill:#F4D242;" d="M767.341,279.159c-9.673,8.311-40.027,43.332-34.576,49.677
				c5.451,6.344,44.643-18.391,54.316-26.702c9.673-8.311,13.095-20.191,7.644-26.536
				C789.274,269.254,777.014,270.848,767.341,279.159z"/>
			<path style="fill:#F4D242;" d="M840.892,483.752c-12.651,1.607-58.987,0.657-60.04-7.641
				c-1.054-8.298,43.573-20.801,56.224-22.408c12.651-1.607,23.761,3.817,24.815,12.115
				C862.944,474.116,853.543,482.145,840.892,483.752z"/>
			<path style="fill:#F4D242;" d="M376.944,263.932c10.04,7.863,41.955,41.468,36.798,48.054
				c-5.157,6.585-45.433-16.343-55.473-24.206c-10.04-7.863-13.999-19.575-8.842-26.161
				C354.584,255.033,366.904,256.069,376.944,263.932z"/>
			<path style="fill:#F4D242;" d="M281.108,450.976c12.651,1.607,58.987,0.657,60.04-7.641c1.054-8.298-43.573-20.801-56.224-22.408
				c-12.651-1.607-23.761,3.817-24.815,12.115C259.056,441.34,268.457,449.37,281.108,450.976z"/>
		</g>
		<g>
			<path style="fill:#FFFFFF;" d="M647.905,608.031c-6.36-4.652-11.304-10.744-14.904-17.593
				c7.177-8.861,10.339-20.776,11.654-31.852c0.803-6.77,1.031-13.561,1.14-20.372c0.105-6.566-0.759-12.144-6.32-16.232
				c-4.958-3.644-11.578-0.355-15.385,3.182c-4.39,4.08-6.515,10.763-8.21,16.326c-3.424,11.237-3.361,23.283-1.212,34.738
				c0.749,3.996,1.869,7.916,3.309,11.716c-2.808,2.198-5.993,3.939-9.507,5.063c-10.813,3.46-19.02-2.77-24.024-11.987
				c-0.823-1.515-1.602-3.12-2.337-4.79c0.85-2.278,1.662-4.556,2.419-6.809c3.68-10.953,5.71-22.424,6.63-33.923
				c0.763-9.531,1.034-20.919-8.135-26.565c-2.948-1.815-6.259-0.443-8.112,2.127c-13.397,18.587-12.645,43.236-5.368,64.324
				c-2.342,5.605-5.094,11.036-8.147,16.294c-3.359,5.785-9.771,14.709-17.551,13.577c-7.242-1.054-13.033-10.145-16.633-15.768
				c-2.639-4.121-4.71-8.524-6.344-13.097c0.921-2.42,1.776-4.87,2.562-7.347c3.09-9.736,4.817-19.885,5.625-30.053
				c0.675-8.489,0.947-20.412-8.337-24.478c-2.701-1.183-6.69-1.059-8.122,2.13c-8.148,18.14-9.711,38.041-4.572,57.262
				c0.174,0.652,0.379,1.297,0.572,1.945c-5.629,14.332-14.191,27.602-24.586,38.886c-4.667,5.066,2.72,12.539,7.579,7.579
				c9.271-9.464,16.977-20.211,23.002-31.876c1.788,3.358,3.798,6.592,6.008,9.652c6.063,8.396,13.661,16.258,24.571,16.847
				c10.189,0.55,18.466-8.016,23.986-15.464c2.649-3.574,4.965-7.466,7.026-11.523c4.99,7.951,12.189,14.257,21.993,15.631
				c9.022,1.264,17.761-1.539,25.155-6.489c4.333,7.371,9.929,14.005,16.452,19.466
				C647.228,624.795,655.737,613.759,647.905,608.031z M579.743,525.495c0.418,4.742-0.679,10.593-0.943,13.468
				c-0.482,5.247-1.401,10.451-2.611,15.587C574.952,544.444,575.779,534.081,579.743,525.495z M625.975,555.317
				c0.373-4.925,1.672-9.77,3.313-14.411c0.743-2.102,1.694-4.078,2.881-5.963c0.093-0.148,0.51-0.685,0.933-1.155
				c0.056,0.325,0.193,0.776,0.228,1.434c0.633,12.007-0.359,24.965-4.097,36.414c-0.464,1.419-1.021,2.797-1.65,4.135
				C626.008,569.052,625.462,562.085,625.975,555.317z"/>
			<path style="fill:#FFFFFF;" d="M659.161,578.923c-21.044,64.225-43.193,128.128-66.989,191.387
				c-2.849,7.574,8.818,12.214,11.651,4.645c23.714-63.354,45.738-127.283,65.49-191.985
				C671.349,576.296,661.365,572.197,659.161,578.923z"/>
			<path style="fill:#FFFFFF;" d="M467.772,574.864c16.792,65.465,32.479,131.253,46.432,197.384
				c1.67,7.917,14.002,5.556,12.32-2.348c-14.073-66.167-29.88-131.91-48.018-197.082
				C476.636,566.095,466.014,568.007,467.772,574.864z"/>
		</g>
	</g>
</g>
<g id="Text">
	<g>
		<path style="fill:#2E4661;stroke:#2E4661;stroke-width:4;stroke-miterlimit:10;" d="M442.702,1035.558v-71.5h4.8v71.5H442.702z"/>
		<path style="fill:#2E4661;stroke:#2E4661;stroke-width:4;stroke-miterlimit:10;" d="M491.502,970.058c10,0,18.35,3.085,25.05,9.25
			c6.7,6.167,10.05,14.55,10.05,25.149c0,10.601-3.084,18.568-9.25,23.9c-6.167,5.334-14.117,8-23.85,8
			c-6.734,0-13.668-0.334-20.801-1v-64.699C478.035,970.258,484.302,970.058,491.502,970.058z M493.502,1032.158
			c8.533,0,15.383-2.301,20.55-6.9c5.165-4.6,7.75-11.533,7.75-20.801c0-9.266-2.917-16.633-8.75-22.1
			c-5.835-5.465-13.017-8.199-21.55-8.199c-6.067,0-10.734,0.134-14,0.399v56.899
			C481.502,1031.925,486.834,1032.158,493.502,1032.158z"/>
		<path style="fill:#2E4661;stroke:#2E4661;stroke-width:4;stroke-miterlimit:10;" d="M546.602,1035.558v-64.899h30.3v4h-25.7v23.6
			h23.2v3.9h-23.2v29.199h26.7v4.2H546.602z"/>
		<path style="fill:#2E4661;stroke:#2E4661;stroke-width:4;stroke-miterlimit:10;" d="M599.501,1013.058l-9.3,22.5h-4.7l27.2-65.3
			h2.699l27.4,65.3h-5.1l-9.4-22.5H599.501z M613.801,977.658c-1,3-1.9,5.5-2.7,7.5l-10,24h25.601l-9.9-23.9
			C615.267,981.525,614.267,978.992,613.801,977.658z"/>
		<path style="fill:#2E4661;stroke:#2E4661;stroke-width:4;stroke-miterlimit:10;" d="M669.1,973.457
			c-3.6,0-6.535,0.867-8.801,2.601c-2.267,1.734-3.399,4.167-3.399,7.3c0,3.6,1.5,6.834,4.5,9.7c2.133,2.067,4.883,4.25,8.25,6.55
			c3.366,2.301,5.683,3.95,6.95,4.95c1.266,1,2.8,2.367,4.6,4.101c3.266,3.267,4.9,7.033,4.9,11.299
			c0,5.535-1.85,9.718-5.551,12.551c-3.699,2.834-8.867,4.25-15.5,4.25c-6.634,0-12.184-1.732-16.649-5.2l2.399-3.5
			c4.533,3.067,9.334,4.601,14.4,4.601s9.016-1.066,11.85-3.201c2.834-2.133,4.25-5.133,4.25-9c0-3.332-1.434-6.399-4.299-9.199
			c-2-2-4.685-4.166-8.051-6.5c-3.367-2.333-5.717-4.016-7.05-5.051c-1.335-1.032-2.899-2.415-4.7-4.149
			c-3.4-3.399-5.1-7.333-5.1-11.8c0-4.466,1.582-7.966,4.75-10.5c3.166-2.533,7.55-3.801,13.15-3.801c5.6,0,10.633,1.101,15.1,3.301
			l-1.7,3.699C679.266,974.457,674.5,973.457,669.1,973.457z"/>
	</g>
</g>
</svg>
